<?xml version="1.0" encoding="UTF-8"?><svg id="a" xmlns="http://www.w3.org/2000/svg" viewBox="0 0 1000 1000"><defs><style>.b{fill:#67555a;}</style></defs><g><g><g><path class="b" d="M371.76,715.38c0-5.91-1.28-11.47-3.83-16.67-2.55-5.2-6.57-9.5-12.03-12.9-2.96,.27-5.96,.4-9.01,.4-2.24,0-4.79-.16-7.66-.47-2.87-.31-5.56-.78-8.06-1.41-2.51-.63-4.62-1.43-6.32-2.42-1.7-.99-2.55-2.1-2.55-3.36,0-.72,.47-1.46,1.41-2.22,.94-.76,2.44-1.14,4.5-1.14,5.92,0,11.22,.67,15.93,2.02s9.07,2.91,13.11,4.71c6.09-1.16,11.6-3.18,16.53-6.05,4.93-2.87,9.14-6.3,12.64-10.28,3.5-3.99,6.18-8.38,8.07-13.17,1.88-4.79,2.82-9.7,2.82-14.72,0-6.36-1.21-12.28-3.63-17.74-2.42-5.46-6.36-10.3-11.83-14.52l-2.69,1.75c-6.27,4.3-12.37,9.55-18.28,15.73-5.91,6.18-11.87,13.35-17.88,21.51-6.99,9.23-13.29,18.69-18.89,28.36-5.6,9.68-11.14,19.49-16.6,29.44-4.21,7.62-8.49,15.24-12.84,22.85-4.35,7.62-8.99,15.24-13.91,22.85-4.48,6.63-9.86,12.55-16.13,17.74-6.27,5.2-13.08,9.57-20.43,13.11-7.35,3.54-15.06,6.25-23.12,8.13-8.07,1.88-16.13,2.82-24.2,2.82-6.18,0-12.3-.56-18.35-1.68-6.05-1.12-11.81-2.94-17.27-5.45-5.47-2.51-10.46-5.74-14.99-9.69-4.53-3.95-8.31-8.75-11.36-14.4-2.33-4.84-3.97-9.51-4.91-13.99-.94-4.48-1.41-9.37-1.41-14.66,0-3.77,.18-7.2,.54-10.29,.36-3.09,.87-6.05,1.55-8.88,.67-2.82,1.48-5.56,2.42-8.21,.94-2.65,2.04-5.36,3.29-8.14,2.69-6.01,5.65-11.32,8.87-15.94,3.23-4.62,7.26-9.26,12.1-13.93,5.02-4.75,10.08-8.74,15.19-11.97,5.11-3.23,10.84-6.01,17.21-8.34,5.46-1.97,10.84-3.45,16.13-4.44,5.29-.99,10.66-1.48,16.13-1.48,1.25,0,2.49,.02,3.7,.07,1.21,.05,2.49,.11,3.83,.2,1.88-2.59,4.05-5.16,6.52-7.71,2.46-2.55,5.04-5.03,7.73-7.44,12.81-11.26,27.04-19.82,42.68-25.67,15.64-5.85,31.97-8.78,49-8.78,10.3,0,19.4,1.12,27.29,3.36,7.88,2.24,14.79,5.11,20.7,8.6,5.2-2.87,10.89-5.24,17.07-7.12s12.41-2.82,18.69-2.82c6.72,0,12.84,1.28,18.35,3.83,5.51,2.55,11.09,6.07,16.74,10.55l-.27,2.15c-5.11-4.21-10.53-7.59-16.27-10.15-5.74-2.55-11.92-3.83-18.55-3.83-5.92,0-11.7,.9-17.34,2.69-5.65,1.79-10.84,3.99-15.59,6.59,7.26,4.84,12.64,10.55,16.13,17.14,3.5,6.59,5.24,13.37,5.24,20.36,0,5.02-.96,9.95-2.89,14.79-1.93,4.84-4.8,9.28-8.6,13.31-3.81,4.03-8.51,7.51-14.12,10.42-5.6,2.91-12.08,5-19.42,6.25,7.17,4.21,12.32,9.48,15.46,15.79,3.14,6.32,4.71,13.11,4.71,20.36,0,4.84-.7,9.66-2.08,14.45-1.39,4.8-3.41,9.41-6.05,13.85-2.64,4.44-5.91,8.56-9.81,12.37-3.9,3.81-8.36,7.13-13.37,9.95-5.02,2.82-10.58,5.04-16.67,6.65-6.1,1.61-12.64,2.42-19.63,2.42-3.41,0-6.88-.16-10.42-.47-3.54-.32-7.06-.87-10.55-1.68-3.5-.81-6.9-1.93-10.22-3.36-3.32-1.44-6.41-3.23-9.28-5.38l.27-2.15c4.57,3.67,9.79,6.2,15.66,7.59,5.87,1.39,11.58,2.08,17.14,2.08,9.23,0,17.77-1.88,25.61-5.65,7.84-3.76,14.61-8.65,20.3-14.65,5.69-6.01,10.13-12.68,13.31-20.03,3.18-7.35,4.77-14.61,4.77-21.78Zm-100.95,21.37c5.02-6.45,9.77-13.11,14.25-19.96,4.48-6.86,8.96-13.78,13.44-20.77,6-9.41,12.32-18.95,18.95-28.63,6.63-9.68,13.8-18.82,21.51-27.42,5.91-6.54,12.05-12.95,18.42-19.22,6.36-6.27,12.68-11.51,18.95-15.73l2.55-1.61c-5.02-3.31-11.14-6.03-18.35-8.13-7.21-2.1-15.57-3.16-25.07-3.16-8.06,0-16.02,.89-23.86,2.68-7.84,1.79-15.46,4.27-22.85,7.44-7.39,3.18-14.5,6.98-21.31,11.4-6.81,4.43-13.22,9.32-19.22,14.68-1.88,1.79-3.7,3.6-5.44,5.43-1.75,1.83-3.38,3.69-4.91,5.57,7.62,1.29,14.9,3.17,21.85,5.66,6.94,2.49,14.09,5.66,21.44,9.51l-.54,1.21c-4.03-1.7-7.93-3.2-11.69-4.5-3.76-1.3-7.53-2.44-11.29-3.43-3.76-.98-7.55-1.79-11.36-2.42-3.81-.63-7.82-1.07-12.03-1.34-2.24,3.05-4.39,6.3-6.45,9.75-2.06,3.45-3.9,7.04-5.51,10.75-1.61,3.72-2.91,7.55-3.9,11.49-.99,3.94-1.48,7.93-1.48,11.96,0,10.58,3.05,18.8,9.14,24.67,6.09,5.87,14.38,9.34,24.87,10.42,3.13-.09,6.41-.49,9.81-1.21,3.4-.72,6.54-1.88,9.41-3.49l.67,1.08c-3.23,2.51-6.57,4.28-10.01,5.31-3.45,1.03-7.15,1.55-11.09,1.55-5.47,0-10.58-.85-15.32-2.55-4.75-1.7-8.89-4.19-12.43-7.46-3.54-3.27-6.32-7.28-8.33-12.03-2.02-4.75-3.02-10.17-3.02-16.27,0-7.8,1.41-15.3,4.23-22.52,2.82-7.21,6.52-14.4,11.09-21.57-5.92,.09-11.54,.67-16.87,1.75-5.33,1.08-10.95,2.78-16.87,5.11-5.74,2.33-10.93,5.04-15.59,8.13-4.66,3.09-9.27,6.88-13.85,11.36-4.39,4.3-8.06,8.56-11.02,12.77-2.96,4.21-5.69,9.05-8.2,14.52-2.51,5.38-4.48,10.91-5.92,16.6-1.43,5.69-2.15,11.58-2.15,17.68,0,4.03,.47,8.09,1.41,12.17,.94,4.08,2.22,8,3.83,11.76,2.51,4.93,5.6,9.28,9.27,13.04,3.67,3.76,7.73,6.92,12.17,9.48,4.43,2.55,9.12,4.48,14.05,5.78,4.93,1.3,9.95,1.95,15.06,1.95,8.07,0,15.82-1.37,23.26-4.1,7.44-2.73,14.49-6.36,21.17-10.89,6.67-4.53,12.95-9.75,18.82-15.66,5.87-5.92,11.31-12.1,16.33-18.55Zm75.95-53.77h1.75c.63,0,1.21-.04,1.75-.13-3.14-1.34-6.54-2.51-10.22-3.49-3.68-.99-7.62-1.48-11.83-1.48-.99,0-1.64,.09-1.95,.27-.32,.18-.47,.36-.47,.54,0,.72,.65,1.32,1.95,1.81,1.3,.49,2.96,.94,4.97,1.35,2.02,.4,4.26,.69,6.72,.87,2.46,.18,4.91,.27,7.33,.27Z"/><path class="b" d="M402.27,737.7c0,1.97,.92,3.38,2.76,4.23,1.84,.85,3.83,1.28,5.98,1.28,4.03,0,8.09-.98,12.16-2.96,4.08-1.97,8.04-4.48,11.9-7.53,3.85-3.05,7.5-6.45,10.96-10.22,3.45-3.76,6.56-7.39,9.34-10.89l1.75,2.02c-2.78,3.5-5.91,7.15-9.41,10.96-3.49,3.81-7.24,7.28-11.22,10.42-3.99,3.14-8.18,5.74-12.57,7.8-4.39,2.06-8.78,3.09-13.17,3.09-1.88,0-3.79-.27-5.71-.81-1.93-.54-3.68-1.36-5.24-2.49-1.57-1.12-2.87-2.57-3.9-4.37-1.03-1.79-1.55-3.94-1.55-6.45,0-4.93,1.28-10.24,3.83-15.93,2.55-5.69,5.98-11.18,10.28-16.47,2.51-3.05,5.24-5.92,8.2-8.6,2.96-2.69,6.03-5.06,9.21-7.13,3.18-2.06,6.41-3.7,9.68-4.91,3.27-1.21,6.43-1.81,9.48-1.81,1.08,0,2.24,.07,3.5,.2,1.25,.13,2.44,.4,3.56,.81,1.12,.4,2.04,1.06,2.76,1.95,.72,.9,1.07,2.06,1.07,3.5,0,1.79-.54,3.63-1.61,5.51-1.08,1.88-2.4,3.7-3.97,5.44-1.57,1.75-3.23,3.36-4.97,4.84-1.75,1.48-3.25,2.67-4.5,3.56-4.03,2.87-8.36,5.31-12.97,7.33-4.62,2.02-9.03,3.07-13.24,3.16-1.79,2.51-3.43,4.97-4.91,7.39-1.48,2.42-2.78,4.68-3.9,6.79-1.12,2.11-1.99,4.06-2.62,5.85-.63,1.79-.94,3.27-.94,4.44Zm46.78-57.8c-2.51,0-5.44,1.28-8.8,3.83-3.36,2.55-6.61,5.62-9.75,9.21-2.78,3.14-5.38,6.23-7.8,9.28-2.42,3.05-4.53,5.83-6.32,8.33,3.76-.45,7.68-1.59,11.76-3.43,4.08-1.84,7.86-4.01,11.36-6.52,1.16-.89,2.53-2.02,4.1-3.36,1.57-1.34,3.07-2.8,4.5-4.37,1.43-1.57,2.67-3.18,3.7-4.84,1.03-1.66,1.55-3.16,1.55-4.5,0-1.25-.45-2.17-1.34-2.76-.9-.58-1.88-.87-2.96-.87Z"/><path class="b" d="M517.34,725.06c1.79-2.06,3.65-4.26,5.58-6.59,1.93-2.33,3.78-4.61,5.58-6.86l1.75,2.02c-1.79,2.24-3.61,4.55-5.44,6.92-1.84,2.38-3.65,4.46-5.44,6.25-2.33,2.6-4.68,5.04-7.06,7.33-2.38,2.29-4.73,4.28-7.06,5.98-2.33,1.7-4.62,3.05-6.86,4.03-2.24,.98-4.35,1.48-6.32,1.48-3.55,0-5.98-.76-7.3-2.28-1.32-1.52-1.98-3.5-1.98-5.92,0-1.88,.39-4.01,1.19-6.38,.79-2.37,1.76-4.77,2.9-7.19-2.59,2.87-5.14,5.58-7.65,8.13-2.5,2.55-5.01,4.82-7.51,6.79-2.77,2.15-5.35,3.88-7.71,5.18-2.37,1.3-4.58,1.95-6.64,1.95-3.13,0-5.37-1.1-6.71-3.29-1.34-2.19-2.01-4.86-2.01-8,0-2.24,.36-4.77,1.07-7.59,.72-2.82,1.66-5.69,2.82-8.6,1.16-2.91,2.48-5.8,3.95-8.67,1.47-2.87,3.02-5.51,4.63-7.93,2.5-3.31,5.29-6.47,8.37-9.48,3.08-3,6.27-5.65,9.58-7.93,3.3-2.29,6.7-4.1,10.19-5.44,3.49-1.34,6.89-2.02,10.21-2.02,2.69,0,4.77,.65,6.25,1.95,1.48,1.3,2.22,3.25,2.22,5.85,0,1.26-.13,2.69-.4,4.3l8.07-11.83h17.21l-15.46,20.43c-6.72,8.87-13.22,17.88-19.49,27.02-.72,.99-1.52,2.17-2.42,3.56-.9,1.39-1.75,2.82-2.55,4.3-.81,1.48-1.5,2.91-2.08,4.3-.58,1.39-.87,2.62-.87,3.7,0,1.52,.94,2.29,2.82,2.29,1.7,0,3.52-.45,5.44-1.34,1.93-.89,3.94-2.15,6.05-3.76,2.1-1.61,4.26-3.5,6.45-5.65,2.19-2.15,4.41-4.48,6.65-6.99Zm-47.05,11.69c2.87-2.33,5.82-5.06,8.87-8.2,3.05-3.14,6.05-6.54,9.01-10.22,2.51-2.87,4.84-5.96,6.99-9.28,2.15-3.31,4.08-6.59,5.78-9.81,1.07-2.06,2.1-4.34,3.09-6.86,.98-2.51,1.48-5.06,1.48-7.66,0-1.08-.27-2.15-.81-3.23-.54-1.08-1.48-1.61-2.82-1.61-1.97,0-4.28,1.03-6.92,3.09-2.64,2.06-5.36,4.62-8.13,7.66-2.78,3.05-5.51,6.32-8.2,9.81-2.69,3.5-5.06,6.68-7.12,9.54-2.33,3.23-4.48,6.43-6.45,9.61-1.97,3.18-3.68,6.16-5.11,8.94-1.43,2.78-2.58,5.27-3.43,7.46-.85,2.2-1.28,3.97-1.28,5.31,0,1.26,.72,1.88,2.15,1.88,1.61,0,3.52-.56,5.71-1.68,2.2-1.12,4.59-2.71,7.19-4.77Z"/><path class="b" d="M560.49,680.97c0-.72-.23-1.08-.67-1.08-1.34,0-3.27,1.35-5.78,4.03-2.51,2.69-5.42,6.18-8.74,10.49-2.33,2.96-4.91,6.25-7.73,9.88-2.82,3.63-5.58,7.19-8.27,10.69l-1.75-2.02c1.25-1.52,2.53-3.16,3.83-4.91,1.3-1.75,2.53-3.38,3.7-4.91l8.2-10.49c.36-.45,.74-.92,1.14-1.41,.4-.49,.78-.96,1.14-1.41,.98-1.25,2.08-2.62,3.29-4.1,1.21-1.48,2.46-2.84,3.76-4.1,1.3-1.25,2.6-2.31,3.9-3.16,1.3-.85,2.53-1.28,3.7-1.28,2.15,0,3.88,.65,5.18,1.95,1.3,1.3,1.95,3.07,1.95,5.31,0,1.79-.45,3.9-1.34,6.32-.9,2.42-2.06,4.97-3.5,7.66-1.44,2.69-3.05,5.49-4.84,8.4-1.79,2.91-3.63,5.8-5.51,8.67l-2.56,3.76c-1.61,2.42-3.16,4.75-4.64,6.99-1.48,2.24-2.76,4.33-3.83,6.25-1.08,1.93-1.95,3.68-2.62,5.24-.67,1.57-1.01,2.85-1.01,3.83,0,1.08,.67,1.61,2.02,1.61,2.6,0,5.35-.92,8.27-2.76,2.91-1.84,5.85-4.19,8.8-7.06,2.87-2.78,5.78-6,8.74-9.68,2.96-3.67,5.87-7.39,8.74-11.16,2.06-3.5,4.21-7.03,6.45-10.62,2.24-3.58,4.39-6.94,6.45-10.08,1.97-3.05,3.83-5.87,5.58-8.47,1.75-2.6,3.16-4.66,4.23-6.18h17.21l-14.92,19.63c-3.32,4.39-6.72,9.01-10.22,13.85-3.5,4.84-6.77,9.5-9.81,13.98-.72,1.08-1.55,2.31-2.49,3.7-.94,1.39-1.81,2.82-2.62,4.3-.81,1.48-1.5,2.91-2.08,4.3-.58,1.39-.87,2.58-.87,3.56,0,1.52,.98,2.29,2.96,2.29,2.87,0,6.16-1.34,9.88-4.03,3.72-2.69,7.55-6.09,11.49-10.22,2.33-2.42,4.71-5.13,7.13-8.13,2.42-3,4.79-5.94,7.12-8.8l1.75,2.02-2.82,3.63c-1.79,2.15-3.7,4.44-5.71,6.86-2.02,2.42-3.92,4.57-5.71,6.45-2.06,2.06-4.12,4.01-6.18,5.85-2.06,1.84-4.12,3.43-6.18,4.77-2.06,1.34-4.05,2.42-5.98,3.23-1.93,.81-3.74,1.21-5.44,1.21-3.59,0-6.05-.76-7.39-2.28-1.34-1.52-2.02-3.5-2.02-5.92,0-1.79,.31-3.72,.94-5.78,.63-2.06,1.43-4.12,2.42-6.18-1.52,1.88-3.09,3.7-4.71,5.44-1.61,1.75-3.14,3.34-4.57,4.77-2.96,2.78-6.03,5.18-9.21,7.19-3.18,2.02-6.25,3.02-9.21,3.02-5.2,0-8.85-.83-10.95-2.49-2.1-1.66-3.16-3.83-3.16-6.52,0-1.79,.43-3.78,1.28-5.98,.85-2.19,1.97-4.5,3.36-6.92,1.39-2.42,3-4.88,4.84-7.39,1.84-2.51,3.74-5.06,5.71-7.66l6.05-7.53c1.61-1.97,3.25-4.01,4.91-6.12,1.66-2.1,3.13-4.08,4.44-5.91,1.3-1.84,2.37-3.5,3.23-4.97,.85-1.48,1.28-2.62,1.28-3.43Z"/><path class="b" d="M639.39,676.53h-13.31v-3.76h16l16-22.31h16.67l-11.02,14.38-5.91,7.93h12.91v3.76h-16c-4.3,5.65-8.38,11.2-12.23,16.67-3.85,5.47-8.07,11.43-12.64,17.88-1.34,1.88-2.8,3.97-4.37,6.25-1.57,2.29-3.02,4.59-4.37,6.92-1.34,2.33-2.49,4.62-3.43,6.86-.94,2.24-1.41,4.26-1.41,6.05,0,1.61,.47,2.96,1.41,4.03,.94,1.08,2.58,1.61,4.91,1.61,3.05,0,6.45-1.37,10.22-4.1,3.76-2.73,7.62-6.2,11.56-10.42,2.15-2.42,4.48-5.11,6.99-8.07,2.51-2.96,4.84-5.82,6.99-8.6l1.75,2.02c-2.15,2.78-4.42,5.6-6.79,8.47-2.38,2.87-4.68,5.51-6.92,7.93-4.3,4.57-8.51,8.31-12.64,11.22-4.12,2.91-8.07,4.37-11.83,4.37-4.39,0-7.78-1.1-10.15-3.29-2.37-2.19-3.56-5.26-3.56-9.21,0-2.15,.34-4.32,1.01-6.52,.67-2.19,1.5-4.37,2.49-6.52,.99-2.15,2.1-4.26,3.36-6.32,1.25-2.06,2.46-4.03,3.63-5.92,1.16-1.88,2.08-3.38,2.76-4.5,.67-1.12,1.32-2.17,1.95-3.16,.63-.98,1.3-2.02,2.02-3.09,.72-1.08,1.7-2.51,2.96-4.3-2.06,2.51-4.12,5-6.18,7.46-2.06,2.47-4.12,5-6.18,7.59l-5.78,7.12-1.75-2.02c2.69-3.31,5.53-6.79,8.54-10.42,3-3.63,5.87-7.08,8.6-10.35,2.73-3.27,5.26-6.23,7.59-8.87,2.33-2.64,4.21-4.64,5.65-5.98l.54-.81Z"/><path class="b" d="M660.09,737.7c0,.99,.29,1.81,.87,2.49,.58,.67,1.3,1.23,2.15,1.68,.85,.45,1.79,.79,2.82,1.01,1.03,.23,1.99,.34,2.89,.34,4.03,0,8.09-.98,12.16-2.96,4.08-1.97,8.04-4.48,11.9-7.53,3.85-3.05,7.5-6.45,10.96-10.22,3.45-3.76,6.56-7.39,9.34-10.89l1.75,2.02c-2.78,3.5-5.91,7.15-9.41,10.96-3.49,3.81-7.24,7.28-11.22,10.42-3.99,3.14-8.18,5.74-12.57,7.8-4.39,2.06-8.78,3.09-13.17,3.09-1.88,0-3.79-.27-5.71-.81-1.93-.54-3.68-1.36-5.24-2.49-1.57-1.12-2.87-2.57-3.9-4.37-1.03-1.79-1.55-3.94-1.55-6.45,0-4.93,1.28-10.24,3.83-15.93,2.55-5.69,5.98-11.18,10.28-16.47,2.51-3.05,5.24-5.92,8.2-8.6,2.96-2.69,6.03-5.06,9.21-7.13,3.18-2.06,6.41-3.7,9.68-4.91,3.27-1.21,6.43-1.81,9.48-1.81,1.08,0,2.24,.07,3.5,.2,1.25,.13,2.44,.4,3.56,.81,1.12,.4,2.04,1.06,2.76,1.95,.72,.9,1.07,2.06,1.07,3.5,0,1.79-.54,3.63-1.61,5.51-1.08,1.88-2.4,3.7-3.97,5.44-1.57,1.75-3.23,3.36-4.97,4.84-1.75,1.48-3.25,2.67-4.5,3.56-4.03,2.87-8.36,5.31-12.97,7.33-4.62,2.02-9.03,3.07-13.24,3.16-1.79,2.51-3.43,4.97-4.91,7.39-1.48,2.42-2.78,4.68-3.9,6.79-1.12,2.11-1.99,4.06-2.62,5.85-.63,1.79-.94,3.27-.94,4.44Zm46.78-57.8c-2.51,0-5.44,1.28-8.8,3.83-3.36,2.55-6.61,5.62-9.75,9.21-2.78,3.14-5.38,6.23-7.8,9.28-2.42,3.05-4.53,5.83-6.32,8.33,3.76-.45,7.68-1.59,11.76-3.43,4.08-1.84,7.86-4.01,11.36-6.52,1.16-.89,2.53-2.02,4.1-3.36,1.57-1.34,3.07-2.8,4.5-4.37,1.43-1.57,2.67-3.18,3.7-4.84,1.03-1.66,1.55-3.16,1.55-4.5,0-1.25-.45-2.17-1.34-2.76-.9-.58-1.88-.87-2.96-.87Zm1.75-29.44c.45-.72,.99-1.21,1.61-1.48,.63-.27,1.3-.4,2.02-.4,1.52,0,2.8,.56,3.83,1.68,1.03,1.12,1.55,2.31,1.55,3.56,0,1.34-.67,2.55-2.02,3.63l-13.17,9.01-10.89,7.26-1.21-1.21,7.12-8.47c2.06-2.33,3.94-4.52,5.65-6.59,1.7-2.06,3.54-4.39,5.51-6.99Z"/></g><g><path class="b" d="M459.52,636.84v-1.61c1.83-.11,3.22-.32,4.16-.65,.94-.32,1.58-.97,1.9-1.94,.32-.97,.49-2.42,.49-4.36v-40.04c0-1.99-.16-3.46-.49-4.4-.32-.94-.96-1.59-1.9-1.94s-2.33-.55-4.16-.61v-1.61c1.13,.05,2.61,.11,4.44,.16,1.83,.05,3.8,.08,5.89,.08,1.88,0,3.75-.03,5.61-.08,1.86-.05,3.4-.11,4.64-.16v1.61c-1.83,.05-3.22,.26-4.16,.61s-1.57,1-1.9,1.94c-.32,.94-.49,2.41-.49,4.4v40.04c0,1.94,.16,3.39,.49,4.36,.32,.97,.95,1.61,1.9,1.94,.94,.32,2.33,.54,4.16,.65v1.61c-1.24-.11-2.79-.17-4.64-.2-1.86-.03-3.73-.04-5.61-.04-2.1,0-4.06,.01-5.89,.04-1.83,.03-3.31,.09-4.44,.2Zm11.22-27.93v-1.61h31.89v1.61h-31.89Zm22.53,27.93v-1.61c1.83-.11,3.22-.32,4.16-.65,.94-.32,1.58-.97,1.9-1.94,.32-.97,.49-2.42,.49-4.36v-40.04c0-1.99-.16-3.46-.49-4.4-.32-.94-.96-1.59-1.9-1.94s-2.33-.55-4.16-.61v-1.61c1.24,.05,2.8,.11,4.68,.16,1.88,.05,3.74,.08,5.57,.08,2.1,0,4.06-.03,5.89-.08,1.83-.05,3.31-.11,4.44-.16v1.61c-1.83,.05-3.22,.26-4.16,.61s-1.57,1-1.9,1.94c-.32,.94-.49,2.41-.49,4.4v40.04c0,1.94,.16,3.39,.49,4.36,.32,.97,.95,1.61,1.9,1.94,.94,.32,2.33,.54,4.16,.65v1.61c-1.13-.11-2.61-.17-4.44-.2-1.83-.03-3.8-.04-5.89-.04-1.83,0-3.69,.01-5.57,.04-1.89,.03-3.45,.09-4.68,.2Z"/><path class="b" d="M534.04,637.4c-3.5,0-6.04-.87-7.63-2.62-1.59-1.75-2.38-4.08-2.38-6.98,0-2.26,.55-4.13,1.66-5.61,1.1-1.48,2.52-2.69,4.24-3.63,1.72-.94,3.54-1.75,5.45-2.42,1.91-.67,3.73-1.33,5.45-1.98,1.72-.65,3.13-1.37,4.24-2.18,1.1-.81,1.65-1.83,1.65-3.07v-5c0-2.26-.34-3.98-1.01-5.17-.67-1.18-1.57-1.98-2.7-2.38-1.13-.4-2.4-.6-3.79-.6s-2.79,.19-4.32,.57c-1.53,.38-2.76,1.16-3.67,2.34,1.02,.22,1.91,.75,2.66,1.61,.75,.86,1.13,1.97,1.13,3.31s-.43,2.41-1.29,3.19c-.86,.78-1.97,1.17-3.31,1.17-1.56,0-2.7-.5-3.43-1.49-.73-1-1.09-2.11-1.09-3.35,0-1.4,.35-2.53,1.05-3.39,.7-.86,1.59-1.67,2.66-2.42,1.24-.86,2.84-1.6,4.8-2.22,1.96-.62,4.18-.93,6.66-.93,2.21,0,4.09,.26,5.65,.77,1.56,.51,2.85,1.25,3.88,2.22,1.4,1.29,2.31,2.87,2.75,4.72,.43,1.86,.65,4.08,.65,6.66v22.44c0,1.29,.19,2.25,.57,2.87,.37,.62,1.02,.93,1.94,.93,.75,0,1.41-.16,1.98-.48,.57-.32,1.12-.73,1.66-1.21l.89,1.37c-1.13,.86-2.21,1.57-3.23,2.14-1.02,.57-2.39,.85-4.12,.85-2.8,0-4.66-.73-5.57-2.18s-1.37-3.12-1.37-5.01c-1.72,2.85-3.67,4.76-5.85,5.73-2.18,.97-4.45,1.45-6.82,1.45Zm3.55-3.23c1.61,0,3.2-.47,4.76-1.41,1.56-.94,3.01-2.51,4.36-4.72v-15.82c-.81,1.18-2.06,2.13-3.75,2.83-1.7,.7-3.44,1.47-5.25,2.3-1.8,.83-3.35,1.97-4.64,3.39-1.29,1.43-1.94,3.46-1.94,6.1,0,2.48,.62,4.32,1.86,5.53,1.24,1.21,2.77,1.82,4.6,1.82Z"/><path class="b" d="M580.3,573.54v55.79c0,2.26,.47,3.8,1.41,4.6,.94,.81,2.51,1.21,4.72,1.21v1.7c-.92-.05-2.3-.12-4.16-.2-1.86-.08-3.73-.12-5.61-.12s-3.69,.04-5.57,.12c-1.88,.08-3.28,.15-4.2,.2v-1.7c2.21,0,3.78-.4,4.72-1.21,.94-.81,1.41-2.34,1.41-4.6v-46.1c0-2.42-.43-4.21-1.29-5.37-.86-1.16-2.48-1.74-4.84-1.74v-1.7c1.72,.16,3.39,.24,5,.24s3.05-.09,4.48-.28c1.43-.19,2.73-.47,3.91-.85Z"/><path class="b" d="M607.99,594.37v34.96c0,2.26,.47,3.8,1.41,4.6,.94,.81,2.52,1.21,4.72,1.21v1.7c-.92-.05-2.3-.12-4.16-.2-1.86-.08-3.73-.12-5.61-.12s-3.69,.04-5.57,.12c-1.88,.08-3.28,.15-4.2,.2v-1.7c2.21,0,3.78-.4,4.72-1.21,.94-.81,1.41-2.34,1.41-4.6v-25.27c0-2.42-.43-4.21-1.29-5.37-.86-1.16-2.48-1.74-4.84-1.74v-1.7c1.72,.16,3.39,.24,5.01,.24s3.05-.09,4.48-.28c1.43-.19,2.73-.47,3.92-.85Z"/><path class="b" d="M649.41,594.13c2.04,0,3.75,.27,5.13,.81,1.37,.54,2.51,1.29,3.43,2.26,1.02,1.08,1.75,2.42,2.18,4.04,.43,1.61,.65,3.79,.65,6.54v21.56c0,2.26,.47,3.8,1.41,4.6,.94,.81,2.52,1.21,4.72,1.21v1.7c-.92-.05-2.32-.12-4.2-.2-1.88-.08-3.71-.12-5.49-.12s-3.51,.04-5.21,.12c-1.7,.08-2.97,.15-3.83,.2v-1.7c1.94,0,3.31-.4,4.12-1.21,.81-.81,1.21-2.34,1.21-4.6v-23.33c0-1.67-.13-3.2-.4-4.6-.27-1.4-.88-2.53-1.82-3.39-.94-.86-2.38-1.29-4.32-1.29-3.39,0-6.12,1.41-8.19,4.24-2.07,2.83-3.11,6.31-3.11,10.45v17.92c0,2.26,.4,3.8,1.21,4.6,.81,.81,2.18,1.21,4.12,1.21v1.7c-.86-.05-2.14-.12-3.83-.2-1.7-.08-3.43-.12-5.21-.12s-3.61,.04-5.49,.12c-1.88,.08-3.28,.15-4.2,.2v-1.7c2.21,0,3.78-.4,4.72-1.21,.94-.81,1.41-2.34,1.41-4.6v-25.27c0-2.42-.43-4.21-1.29-5.37-.86-1.16-2.48-1.74-4.84-1.74v-1.7c1.72,.16,3.39,.24,5.01,.24s3.05-.09,4.48-.28c1.43-.19,2.73-.47,3.92-.85v9.53c1.4-3.66,3.35-6.2,5.85-7.63,2.5-1.43,5.13-2.14,7.87-2.14Z"/><path class="b" d="M687.19,573.62v30.19c1.4-3.66,3.35-6.19,5.85-7.59,2.5-1.4,5.13-2.1,7.87-2.1,2.04,0,3.75,.27,5.13,.81s2.52,1.29,3.43,2.26c1.02,1.08,1.75,2.42,2.18,4.04,.43,1.61,.65,3.79,.65,6.54v21.56c0,2.26,.47,3.8,1.41,4.6,.94,.81,2.51,1.21,4.72,1.21v1.7c-.92-.05-2.31-.12-4.2-.2-1.89-.08-3.71-.12-5.49-.12s-3.51,.04-5.21,.12c-1.7,.08-2.97,.15-3.83,.2v-1.7c1.94,0,3.31-.4,4.12-1.21,.81-.81,1.21-2.34,1.21-4.6v-23.33c0-1.67-.14-3.2-.4-4.6-.27-1.4-.88-2.53-1.82-3.39-.94-.86-2.38-1.29-4.32-1.29-3.28,0-5.99,1.36-8.11,4.08-2.13,2.72-3.19,6.23-3.19,10.54v18c0,2.26,.4,3.8,1.21,4.6,.81,.81,2.18,1.21,4.12,1.21v1.7c-.86-.05-2.14-.12-3.83-.2-1.7-.08-3.43-.12-5.21-.12s-3.61,.04-5.49,.12c-1.88,.08-3.28,.15-4.2,.2v-1.7c2.21,0,3.78-.4,4.72-1.21,.94-.81,1.41-2.34,1.41-4.6v-46.02c0-2.42-.43-4.21-1.29-5.37-.86-1.16-2.48-1.74-4.84-1.74v-1.7c1.72,.16,3.39,.24,5,.24s3.05-.09,4.48-.28c1.43-.19,2.73-.47,3.91-.85Z"/></g><path class="b" d="M767.42,665.75c-13.59,2.84-16.51,5.11-18.16,23.75-1.65-18.64-4.56-20.91-18.16-23.75,17.24-2.19,14.32-5.31,18.16-25.78,3.84,20.47,.91,23.59,18.16,25.78Z"/><path class="b" d="M613.69,575.82c-8.18,1.71-9.94,3.08-10.93,14.3-.99-11.22-2.75-12.59-10.93-14.3,10.38-1.32,8.62-3.2,10.93-15.52,2.31,12.32,.55,14.2,10.93,15.52Z"/></g><g><g><path class="b" d="M368.7,805.71l8.56-13.05,1.36,.84-7.86,11.98,7.35,4.56-.7,1.07-8.7-5.41Z"/><path class="b" d="M377.59,811.94l-9.74-6.05,9.23-14.06,2.39,1.49-7.86,11.98,7.35,4.56-1.36,2.08Zm-8.04-6.41l7.67,4.77,.04-.06-7.35-4.56,7.86-11.98-.32-.2-7.9,12.04Z"/></g><g><path class="b" d="M390.15,806.07l.42-.72c.32-.02,.58-.09,.79-.23,.2-.13,.39-.35,.57-.65l.37-.65-.65-.35,.98-1.7,1.38,.75-1.31,2.27c-.32,.55-.67,.92-1.06,1.12s-.89,.24-1.49,.16Z"/><path class="b" d="M390.87,806.71c-.25,.01-.52,0-.81-.04l-.88-.13,1.01-1.77,.34-.02c.21-.01,.37-.05,.48-.13,.08-.05,.22-.17,.37-.45l.07-.13-.65-.35,1.58-2.74,2.45,1.34-1.61,2.8c-.38,.66-.81,1.11-1.32,1.36-.31,.15-.66,.24-1.05,.26Zm1.62-3.47l.32,.17,.37-.65-.32-.17-.38,.65Z"/></g><g><path class="b" d="M395.41,820.78l7.14-13.84,1.44,.7-7.14,13.84-1.44-.7Z"/><path class="b" d="M397.12,822.28l-2.54-1.24,7.7-14.91,2.53,1.24-7.7,14.9Zm-.89-1.77l.34,.17,6.59-12.77-.34-.17-6.59,12.77Z"/></g><g><path class="b" d="M406.2,825.87l6.18-14.27,1.59,.65,3.59,15.87,5.3-12.24,1.4,.57-6.18,14.27-1.6-.65-3.55-15.87-5.3,12.25-1.42-.58Z"/><path class="b" d="M418.41,831.51l-2.46-1-3.21-14.33-4.79,11.06-2.55-1.04,6.66-15.37,2.45,1,3.24,14.34,4.79-11.06,2.53,1.04-6.66,15.37Zm-.92-1.67l.27,.11,5.7-13.17-.27-.11-5.7,13.17Zm-.48-.19l.3,.12-3.86-17.08-.25-.1,3.82,17.06Zm-10.01-4.09l.29,.12,5.7-13.17-.29-.12-5.7,13.17Z"/></g><g><path class="b" d="M428.61,829.52l1.49,.47c-.37,1.16-.27,2.19,.31,3.08,.58,.89,1.59,1.56,3.03,2.01,1.27,.4,2.35,.45,3.24,.16s1.5-.89,1.8-1.79c.28-.84,.24-1.56-.12-2.16-.36-.6-1.24-1.31-2.64-2.14l-1.43-.83c-1.53-.91-2.52-1.76-2.96-2.56-.44-.8-.47-1.73-.11-2.82,.4-1.19,1.2-2,2.4-2.41,1.2-.42,2.61-.37,4.22,.13,1.71,.54,2.91,1.35,3.6,2.44,.7,1.09,.82,2.34,.37,3.76l-1.51-.47c.33-1.05,.24-1.98-.27-2.76-.51-.79-1.39-1.38-2.66-1.78-1.19-.37-2.19-.42-3.01-.14-.82,.28-1.37,.86-1.67,1.75-.23,.68-.19,1.28,.1,1.8,.3,.52,.9,1.05,1.81,1.59l1.75,1.03c1.73,1.01,2.87,1.97,3.41,2.86,.54,.89,.62,1.91,.23,3.06-.44,1.32-1.28,2.2-2.54,2.65-1.25,.45-2.74,.4-4.47-.14-1.93-.61-3.29-1.49-4.05-2.64-.77-1.15-.9-2.49-.39-4.03l.03-.1Z"/><path class="b" d="M436,837.32c-.97,.05-2.03-.11-3.17-.47-2.06-.65-3.54-1.62-4.38-2.88-.87-1.31-1.02-2.83-.46-4.54l.19-.57,.62,.08,2.07,.65-.18,.56c-.32,1-.24,1.84,.24,2.58,.5,.77,1.41,1.36,2.7,1.77,1.13,.35,2.1,.41,2.86,.16,.71-.23,1.17-.69,1.41-1.41,.23-.68,.2-1.22-.07-1.67-.21-.35-.8-.97-2.43-1.94l-1.42-.83c-1.64-.98-2.68-1.89-3.18-2.79-.52-.94-.57-2.05-.16-3.28,.46-1.37,1.39-2.31,2.78-2.8,1.33-.46,2.88-.42,4.62,.13,1.84,.58,3.16,1.48,3.94,2.69,.79,1.24,.94,2.67,.44,4.25l-.18,.58-2.68-.84,.17-.56c.28-.89,.21-1.63-.2-2.27-.43-.67-1.21-1.18-2.33-1.53-1.06-.33-1.94-.38-2.62-.15-.63,.22-1.05,.66-1.29,1.37-.17,.52-.15,.95,.06,1.33,.24,.43,.78,.89,1.59,1.36l1.75,1.03c1.84,1.08,3.03,2.08,3.62,3.07,.63,1.04,.73,2.23,.29,3.54-.5,1.5-1.48,2.52-2.91,3.03-.53,.19-1.09,.3-1.69,.33Zm-6.98-7.04c-.28,1.16-.13,2.16,.46,3.04,.69,1.03,1.94,1.83,3.73,2.4,1.59,.5,2.95,.55,4.07,.15,1.07-.38,1.78-1.12,2.16-2.27,.33-.99,.27-1.83-.18-2.57-.48-.8-1.56-1.69-3.2-2.65l-1.75-1.03c-1.02-.59-1.68-1.19-2.03-1.81-.38-.67-.43-1.44-.15-2.27,.36-1.07,1.05-1.79,2.05-2.13,.94-.32,2.09-.28,3.4,.14,1.4,.44,2.41,1.12,2.99,2.03,.51,.79,.67,1.69,.48,2.68l.35,.11c.2-1.01,.05-1.89-.46-2.68-.62-.96-1.72-1.7-3.27-2.19-1.47-.46-2.76-.51-3.83-.14-1.02,.35-1.68,1.02-2.02,2.03-.31,.93-.29,1.7,.07,2.35,.38,.7,1.3,1.48,2.73,2.33l1.42,.83c1.5,.89,2.43,1.66,2.85,2.36,.45,.75,.51,1.64,.17,2.64-.36,1.09-1.1,1.83-2.19,2.18-1.02,.33-2.24,.27-3.62-.16-1.57-.5-2.7-1.26-3.36-2.26-.58-.89-.76-1.9-.53-3.01l-.34-.11Z"/></g><g><path class="b" d="M451.43,840.89l3.42-13.82-5.15-1.2,.3-1.24,11.87,2.76-.31,1.24-5.15-1.2-3.42,13.81-1.57-.36Z"/><path class="b" d="M453.45,841.97l-2.76-.64,3.42-13.82-5.15-1.2,.59-2.4,13.07,3.04-.6,2.4-5.15-1.2-3.42,13.81Zm-1.28-1.53l.38,.09,3.42-13.81,5.15,1.2,.02-.07-10.68-2.48-.02,.07,5.15,1.2-3.42,13.82Z"/></g><g><path class="b" d="M466.64,844l2.78-15.24,1.59,.27-2.78,15.24-1.59-.27Z"/><path class="b" d="M468.72,844.96l-2.8-.48,3-16.42,2.8,.48-3,16.42Zm-1.37-1.45l.38,.06,2.57-14.06-.38-.06-2.57,14.06Z"/></g><g><path class="b" d="M482.02,846.21l1.68-14.11-5.26-.58,.15-1.26,12.13,1.34-.15,1.26-5.26-.58-1.68,14.11-1.6-.18Z"/><path class="b" d="M484.16,847.05l-2.82-.31,1.68-14.11-5.26-.58,.29-2.45,13.35,1.47-.3,2.45-5.26-.58-1.68,14.11Zm-1.46-1.37l.38,.04,1.68-14.11,5.27,.58v-.08l-10.9-1.21v.08l5.26,.58-1.68,14.11Z"/></g><g><path class="b" d="M498.01,832.12l1.57,.05-.33,9.74c-.06,1.72,.29,2.97,1.04,3.76s1.99,1.21,3.71,1.27c1.72,.05,2.99-.3,3.8-1.04,.81-.75,1.25-1.98,1.3-3.69l.33-9.74,1.56,.05-.34,9.94c-.07,1.97-.66,3.44-1.78,4.4-1.12,.97-2.76,1.42-4.92,1.36-2.15-.06-3.75-.61-4.8-1.64-1.05-1.03-1.54-2.53-1.48-4.5l.34-9.94Z"/><path class="b" d="M504.96,848.79c-.33,.02-.68,.02-1.04,0-2.3-.07-4.06-.68-5.22-1.81-1.17-1.14-1.73-2.81-1.66-4.94l.36-10.54,2.79,.08-.35,10.34c-.05,1.55,.24,2.67,.88,3.34,.63,.67,1.74,1.03,3.28,1.08,1.55,.04,2.68-.25,3.36-.88,.69-.63,1.06-1.73,1.11-3.28l.35-10.34,2.79,.08-.36,10.54c-.07,2.13-.74,3.75-1.99,4.83-1.05,.9-2.5,1.41-4.31,1.5Zm-6.37-16.06l-.32,9.35c-.06,1.79,.38,3.16,1.3,4.06,.93,.91,2.41,1.4,4.38,1.46,1.98,.06,3.5-.35,4.5-1.21,.99-.85,1.52-2.19,1.58-3.98l.32-9.35h-.34l-.31,9.14c-.06,1.87-.57,3.25-1.5,4.11-.93,.86-2.35,1.26-4.24,1.21-1.89-.06-3.28-.55-4.14-1.46-.86-.91-1.26-2.32-1.2-4.19l.31-9.15h-.34Z"/></g><g><path class="b" d="M524.21,847.59l-.48-14.19-5.3,.18-.04-1.27,12.21-.42,.04,1.27-5.3,.18,.47,14.19-1.61,.06Z"/><path class="b" d="M526.46,848.11l-2.84,.1-.48-14.19-5.3,.18-.08-2.46,13.43-.46,.08,2.46-5.3,.18,.47,14.19Zm-1.65-1.14h.38l-.47-14.21,5.3-.18v-.07l-10.98,.38v.07l5.3-.18,.48,14.19Z"/></g><g><path class="b" d="M552.45,844.84l-2.8-15.22,5.6-.99c1.3-.23,2.25-.35,2.85-.36,.6,0,1.14,.06,1.61,.21,.73,.22,1.32,.6,1.79,1.13,.47,.53,.77,1.18,.91,1.94,.17,.94,.09,1.77-.26,2.49-.35,.72-.94,1.3-1.77,1.73,.72,.09,1.27,.32,1.65,.69,.37,.37,.74,1.2,1.1,2.47l.64,2.25c.09,.35,.21,.64,.35,.86,.13,.22,.28,.37,.45,.45l.04,.21-1.71,.3c-.12-.14-.24-.34-.34-.58-.11-.24-.21-.55-.31-.92l-.56-1.98c-.37-1.37-.81-2.21-1.31-2.52s-1.41-.34-2.72-.11l-4.91,.87,1.25,6.81-1.54,.27Zm.06-8.33l4.46-.79c1.57-.28,2.65-.72,3.25-1.32,.6-.6,.8-1.45,.6-2.53-.09-.5-.28-.92-.57-1.29-.29-.36-.66-.63-1.11-.8-.35-.14-.75-.21-1.2-.21s-1.17,.08-2.16,.25l-.65,.11-3.72,.66,1.09,5.91Z"/><path class="b" d="M551.96,845.53l-3.01-16.4,6.21-1.1c1.32-.24,2.32-.35,2.95-.37,.67,0,1.27,.07,1.8,.23,.83,.25,1.53,.69,2.07,1.31,.54,.61,.89,1.36,1.05,2.22,.19,1.05,.09,2.01-.31,2.85-.23,.47-.54,.89-.94,1.26,.27,.13,.5,.3,.7,.5,.46,.46,.86,1.33,1.25,2.73l.64,2.24c.08,.3,.17,.53,.28,.71,.1,.16,.18,.22,.2,.23l.26,.13,.21,1.08-2.67,.47-.23-.26c-.16-.18-.3-.42-.44-.73-.12-.27-.23-.6-.34-1l-.56-1.98c-.45-1.66-.88-2.07-1.04-2.17-.21-.13-.78-.3-2.29-.03l-4.31,.76,1.25,6.81-2.75,.49Zm-1.59-15.44l2.58,14.05,.33-.06-1.25-6.81,5.51-.98c.4-.07,.77-.12,1.11-.14l-.27-.03,.62-.32c-.54,.2-1.18,.37-1.92,.5l-5.07,.9-1.3-7.09,4.98-.88c1.04-.18,1.79-.27,2.28-.26,.53,0,1,.1,1.42,.26,.54,.21,1,.54,1.36,.98,.35,.43,.58,.95,.69,1.55,.23,1.28-.03,2.31-.77,3.05-.11,.11-.24,.22-.38,.32,.62-.36,1.05-.8,1.31-1.35,.29-.61,.36-1.31,.21-2.13-.12-.65-.38-1.2-.77-1.65-.39-.45-.89-.76-1.5-.95-.41-.12-.89-.19-1.42-.18-.58,0-1.5,.12-2.75,.35l-5,.89Zm10.11,6.28c.08,.03,.15,.07,.22,.11,.66,.4,1.16,1.31,1.58,2.87l.56,1.97c.09,.34,.18,.62,.28,.84,.03,.06,.05,.11,.08,.16l.36-.06c-.15-.26-.27-.58-.37-.94l-.64-2.24c-.43-1.53-.78-2.05-.95-2.22-.25-.25-.62-.41-1.12-.49Zm-8.34-5.3l.87,4.74,3.86-.68c1.43-.25,2.41-.64,2.92-1.15,.46-.46,.6-1.12,.44-2.01-.07-.4-.22-.74-.45-1.02-.22-.28-.5-.48-.85-.61-.28-.11-.61-.17-.98-.17-.4,0-1.09,.08-2.04,.24l-3.77,.67Z"/></g><g><path class="b" d="M573.95,840.59l-4.09-14.94,10.8-2.83,.34,1.23-9.29,2.44,1.49,5.45,8.49-2.23,.32,1.19-8.49,2.23,1.6,5.85,9.57-2.51,.34,1.23-11.08,2.91Z"/><path class="b" d="M573.52,841.32l-4.41-16.09,11.99-3.15,.65,2.38-9.29,2.44,1.18,4.29,8.5-2.23,.64,2.34-8.49,2.23,1.29,4.7,9.57-2.51,.65,2.38-12.27,3.22Zm-2.91-15.25l3.78,13.79,9.9-2.6-.02-.07-9.57,2.51-1.92-7,8.49-2.23v-.03l-8.5,2.23-1.81-6.6,9.29-2.44-.02-.07-9.62,2.52Z"/></g><g><path class="b" d="M594.16,834.87l-5.4-14.54,1.62-.58,13.71,9.24-4.63-12.47,1.43-.51,5.4,14.54-1.64,.58-13.68-9.27,4.64,12.48-1.45,.52Z"/><path class="b" d="M593.8,835.64l-5.82-15.66,2.5-.89,12.39,8.35-4.19-11.26,2.58-.91,5.82,15.66-2.51,.89-12.35-8.37,4.19,11.27-2.6,.93Zm-4.25-14.95l4.98,13.41,.3-.11-4.99-13.41-.3,.11Zm.49-.18l14.7,9.96,.3-.11-14.75-9.94-.25,.09Zm10.2-3.62l4.99,13.41,.27-.1-4.99-13.41-.27,.1Z"/></g><g><path class="b" d="M615.99,826.63l-6.73-14,1.57-.72,14.51,7.99-5.77-12,1.38-.63,6.73,14-1.58,.72-14.49-8.02,5.78,12.02-1.4,.64Z"/><path class="b" d="M615.69,827.43l-7.25-15.08,2.41-1.1,13.11,7.22-5.22-10.84,2.49-1.14,7.25,15.08-2.42,1.11-13.08-7.25,5.22,10.85-2.51,1.15Zm-5.62-14.51l6.21,12.92,.29-.13-6.21-12.92-.29,.13Zm.48-.22l15.57,8.62,.29-.13-15.61-8.6-.24,.11Zm9.83-4.51l6.21,12.92,.27-.12-6.21-12.92-.26,.12Z"/></g><g><path class="b" d="M636.88,816.52l-7.92-13.39,9.69-5.46,.65,1.1-8.33,4.7,2.89,4.88,7.62-4.29,.63,1.06-7.62,4.29,3.1,5.25,8.58-4.84,.65,1.1-9.94,5.6Z"/><path class="b" d="M636.65,817.34l-8.54-14.42,10.75-6.06,1.26,2.13-8.33,4.7,2.28,3.85,7.62-4.29,1.24,2.1-7.62,4.29,2.49,4.21,8.58-4.84,1.26,2.13-11,6.2Zm-6.86-13.99l7.31,12.35,8.88-5-.04-.06-8.58,4.84-3.72-6.28,7.62-4.29-.02-.03-7.62,4.29-3.5-5.92,8.33-4.7-.04-.06-8.63,4.86Z"/></g><g><path class="b" d="M651.45,802.53l1.29-.87c.72,.99,1.62,1.54,2.7,1.63,1.08,.09,2.24-.28,3.49-1.12,1.1-.74,1.8-1.54,2.11-2.41,.31-.87,.19-1.69-.36-2.48-.51-.73-1.12-1.13-1.83-1.22-.71-.08-1.83,.16-3.36,.74l-1.55,.6c-1.68,.63-2.97,.88-3.89,.73-.91-.15-1.7-.69-2.36-1.62-.73-1.03-.89-2.14-.5-3.32,.4-1.18,1.29-2.24,2.69-3.18,1.48-.99,2.88-1.43,4.19-1.31,1.31,.12,2.41,.79,3.29,2l-1.31,.88c-.66-.89-1.46-1.38-2.42-1.47-.95-.09-1.98,.24-3.07,.98-1.03,.69-1.69,1.44-1.95,2.24-.27,.8-.14,1.59,.41,2.35,.41,.59,.92,.93,1.53,1.01,.61,.09,1.41-.06,2.4-.44l1.91-.73c1.88-.72,3.35-1.02,4.41-.9,1.05,.12,1.93,.68,2.63,1.67,.8,1.14,1.01,2.33,.61,3.57-.4,1.24-1.35,2.36-2.85,3.36-1.68,1.13-3.22,1.64-4.63,1.53-1.41-.1-2.58-.82-3.52-2.14l-.06-.09Z"/><path class="b" d="M655.67,805.36c-.23,.01-.46,0-.69,0-1.59-.12-2.93-.92-3.97-2.4l-.35-.49,.44-.43,1.79-1.2,.35,.48c.62,.85,1.35,1.3,2.25,1.38,.93,.08,1.97-.26,3.09-1.02,.98-.66,1.61-1.37,1.88-2.11,.25-.68,.15-1.32-.29-1.94-.41-.59-.87-.9-1.4-.97-.41-.05-1.28,.03-3.06,.7l-1.55,.6c-1.8,.68-3.17,.93-4.21,.77-1.08-.17-2.01-.8-2.77-1.87-.84-1.19-1.03-2.48-.57-3.85,.44-1.31,1.42-2.48,2.92-3.49,1.59-1.07,3.14-1.55,4.59-1.41,1.49,.14,2.75,.89,3.73,2.24l.36,.49-2.32,1.56-.35-.48c-.56-.75-1.2-1.15-1.98-1.22-.8-.07-1.7,.22-2.67,.87-.92,.61-1.49,1.27-1.72,1.93-.21,.62-.1,1.22,.33,1.83,.32,.45,.68,.7,1.12,.76,.5,.08,1.2-.06,2.08-.4l1.91-.73c2-.77,3.54-1.08,4.71-.94,1.23,.15,2.26,.79,3.07,1.93,.91,1.3,1.14,2.67,.69,4.08-.44,1.36-1.48,2.6-3.08,3.68-1.53,1.03-2.98,1.58-4.33,1.64Zm-3.35-2.69c.77,.92,1.68,1.41,2.76,1.49,1.25,.09,2.68-.39,4.23-1.43,1.38-.92,2.25-1.95,2.61-3.05,.34-1.06,.17-2.06-.53-3.05-.6-.85-1.32-1.32-2.2-1.42-.95-.11-2.34,.18-4.11,.86l-1.91,.73c-1.1,.43-2,.58-2.72,.47-.78-.11-1.43-.54-1.94-1.27-.65-.92-.81-1.89-.48-2.87,.31-.92,1.05-1.78,2.19-2.55,1.21-.81,2.38-1.17,3.48-1.08,.95,.09,1.79,.51,2.48,1.26l.3-.2c-.7-.77-1.51-1.18-2.46-1.27-1.16-.1-2.43,.3-3.78,1.21-1.27,.86-2.1,1.82-2.45,2.87-.34,1.01-.2,1.92,.42,2.8,.57,.8,1.21,1.25,1.96,1.37,.8,.13,2-.11,3.57-.7l1.55-.6c1.64-.62,2.83-.87,3.66-.78,.89,.11,1.65,.6,2.26,1.47,.67,.95,.81,1.96,.43,3.01-.36,.99-1.15,1.9-2.35,2.7-1.36,.92-2.67,1.33-3.89,1.23-1.08-.09-2.01-.57-2.77-1.41l-.3,.2Z"/></g></g></g><g><path class="b" d="M361.59,218.27c12.38-15.16,27.78-28.23,45.21-38.94,17.48-10.65,37.16-18.84,58.37-23.58,21.17-4.76,43.95-5.99,66.66-2.77,11.34,1.59,22.62,4.39,33.53,8.18,10.88,3.9,21.42,8.77,31.1,14.87-21.23-8.42-43.01-13.58-64.53-15.11-21.52-1.61-42.67,.24-62.78,4.72-20.12,4.49-39.22,11.62-57.09,20.64-17.93,8.98-34.52,19.96-50.47,31.99Z"/><g><path class="b" d="M400.33,266.33c2.16,3.01,4.92,5.95,8.34,8.83-2.85-2.77-5.69-5.74-8.34-8.83Z"/><path class="b" d="M635.89,292.58l-8.69,.02c3,3.03,6,6.07,8.83,9.31,3.91,4.48,7.81,9.02,11.37,13.86-4.86-3.55-9.4-7.44-13.88-11.38-3.21-2.81-6.26-5.8-9.29-8.82-.02,7.48-.14,14.98-.36,22.45-.35,9.16-.66,18.33-1.57,27.49h-.3c-.9-9.16-1.21-18.33-1.57-27.49-.22-7.48-.35-14.98-.36-22.46-3.05,2.99-6.16,5.93-9.32,8.82-4.42,3.99-8.91,7.92-13.74,11.52l-.2-.24c3.58-4.81,7.5-9.32,11.51-13.72,2.88-3.16,5.82-6.27,8.82-9.34-7.5-.02-14.98-.14-22.48-.35-9.16-.36-18.33-.68-27.49-1.57v-.31c9.16-.9,18.33-1.21,27.49-1.57,7.5-.22,14.97-.35,22.46-.36-2.99-3.05-5.93-6.16-8.8-9.32-4.01-4.42-7.92-8.91-11.51-13.74l.2-.2c4.83,3.6,9.32,7.51,13.74,11.51,3.16,2.89,6.27,5.83,9.32,8.82l.03-8.71c.02-4.61,.08-9.18,.28-13.75,.38-9.18,.85-18.33,1.78-27.51,.91,9.18,1.38,18.33,1.76,27.51,.2,4.57,.27,9.15,.28,13.75l.02,8.69c3.03-3.02,6.1-6,9.31-8.83,4.48-3.93,9.02-7.81,13.88-11.37-3.55,4.86-7.45,9.4-11.37,13.86-2.83,3.22-5.83,6.29-8.83,9.31l8.69,.03c4.59,0,9.16,.06,13.75,.27,9.16,.39,18.33,.85,27.49,1.78-9.16,.93-18.33,1.38-27.49,1.76-4.59,.2-9.16,.27-13.75,.3Z"/><path class="b" d="M679.46,363.37c-2.77,1.75-5.42,3.52-7.96,5.31-.86,1.27-1.68,2.55-2.45,3.86-3.26,5.66-5.75,11.72-7.3,18.04-1.56,6.31-2.23,12.84-2.17,19.4,.11,6.55,.84,13.14,2.38,19.63-1.4-3.04-2.36-6.27-3.14-9.54-.75-3.28-1.28-6.62-1.52-9.98-.28-3.37-.23-6.76,0-10.15,.27-3.38,.83-6.74,1.6-10.05,.85-3.29,1.95-6.52,3.29-9.65,1.21-2.69,2.62-5.29,4.2-7.77-5.04,3.88-9.62,7.9-13.67,12.17-.98,1.04-1.94,2.09-2.86,3.14-17.44,20.05-24.44,45.37-20.03,83.29-18.52,18.13-41.11,31.93-66.08,40-33.99,8.64-70.58,6.62-99.33-5.13-22.32-9.13-28.89-23.34-21.89-34.48,8.12-12.94,28.56-16.7,42.86-15.58,13.12,1.03,26.55,4.82,39.99,4.85,5.62,.02,20.68-1.84,21.36-10.08,1.26-15.2-13.76-20.1,3.86-37.77,3.03-3.02,.23-5.79-2.9-7.81-.95-.62-6.33-3.38-6.23-3.93,.43-2.38,16.81-4.73,15.37-10.66-.23-.97-.8-1.63-1.38-2.3-2.1-2.41-3.75-6.29-2.89-9.4,.93-3.36,10.76-8.1,14.2-10.4,6.57-4.39,4.37-8.62-.08-13.74-17.31-18.73-24.62-26.65-30.63-49.04,5.3,1.38,13.9-1.57,18.48-6.81-6.05,3.42-13.39,3.49-20.15,.43-.72-17.12,5.84-36.5-6.02-63.07-10.84,55.07-71.72,71.1-95.67,125.24,3.42-16.58,4.8-33.53,4.1-50.44,0-.25-.43-5.47-.8-10.02,55.19-56.25-19.82-85.44-19.82-85.44,0,0-26.63,15.76-11.66,48.73-8.76-8.18-16.54-30.76-13.01-42.43-23.93,36.53-14.9,82.85,31.69,84.56-32.35-16.49-34.8-43.14-35.21-44.65,2.58,6.63,7.12,13.24,12.36,19.33,2.65,3.09,5.49,6.06,8.34,8.83,.02,0,.03,.03,.05,.04,7.56,7.33,15.19,13.29,19.78,16.67,.93,14.21,.34,28.51-1.78,42.61-.1,.62-2.23,12.16-2.32,12.56-4.82,21.65-16.33,42.75-19.03,64.62-2.64,21.29,2.31,39.37,12.51,54.03,7.22,10.36,17.05,18.96,28.67,25.72-20.33-8.55-38.64-20.95-53.99-36.31-14.92-14.93-27.05-32.63-35.56-52.28,6.17-10.81,18.12-25.15,22.44-61.44,0,0,7.48,27.25-17.36,57.85,41.06-24.9,41.8-74.39,8.92-95.21,7.12,9.1,3.96,20-1.75,32.4,.11-10.12-1.64-19.73-5.06-29.17-.48-1.33-1-2.65-1.54-3.98-4.05-9.81-9.89-19.49-17.29-29.46-30.02,16.46-47.86,52.72-15.87,93.19-5.18-5.32-31.25-31.01-29.4-39.16-18.8,34.06-1.33,73.11,39.51,71.1-32.63-13.67-33.19-36.22-33.4-36.83,8.64,18.7,36.18,35.59,41.2,38.56,8.96,22.73,22.5,43.14,39.48,60.13,31.98,31.97,76.17,51.76,124.96,51.76,35.04,0,67.7-10.2,95.16-27.8,.4-.25,10.92-7.57,11.41-7.94,10.26-7.76,19.57-16.57,27.81-26.21,0,0,0-.02,.03-.03,12.51-13.22,15.74-15.36,33.68-52.2,0,0-1.55,36.84-37.35,61.37,58.1-9.21,72.4-68.95,36.89-111.07Z"/></g><path class="b" d="M485.01,334.94c-57.24,53.88-62.44,121.26-43.35,153.44-2.95-5.76-2.67-11.69,.63-16.94,8.12-12.94,28.56-16.7,42.86-15.58,13.12,1.03,26.55,4.82,39.99,4.85,5.62,.02,20.68-1.84,21.36-10.08,1.26-15.2-13.76-20.1,3.86-37.77,3.03-3.02,.24-5.79-2.9-7.81-.95-.62-6.33-3.38-6.23-3.93,.43-2.38,16.81-4.73,15.37-10.66-.24-.97-.8-1.63-1.38-2.3-2.1-2.41-3.75-6.29-2.89-9.4,.93-3.36,10.76-8.1,14.2-10.4,6.57-4.39,4.37-8.62-.08-13.74-17.31-18.73-24.62-26.65-30.63-49.04,5.3,1.38,13.9-1.57,18.48-6.81-6.05,3.42-13.39,3.49-20.15,.43-.72-17.12,5.84-36.5-6.02-63.07-.04,.19-.08,.38-.12,.57,2.33,18.08,.73,57.06-43,98.23Z"/></g></svg>